<?xml version="1.0" encoding="UTF-8"?>
<svg id="Layer_2" data-name="Layer 2" xmlns="http://www.w3.org/2000/svg" xmlns:xlink="http://www.w3.org/1999/xlink" viewBox="0 0 347.86 480.19">
  <defs>
    <style>
      .cls-1 {
        fill: #eef0f9;
        opacity: .4;
      }

      .cls-2 {
        fill: #f1f2f2;
        stroke: #d1d3d4;
      }

      .cls-2, .cls-3 {
        stroke-miterlimit: 10;
        stroke-width: 2px;
      }

      .cls-3 {
        fill: #d7e8f7;
        stroke: #b0c6e7;
      }

      .cls-4 {
        fill: #edf0f8;
        opacity: .6;
      }
    </style>
  </defs>
  <g id="Layer_1-2" data-name="Layer 1">
    <g>
      <path class="cls-2" d="m16.18,184.6h0c3.7-2.06,8.36-.73,10.42,2.97l78.72,141.36c-1.3,2.07-2.06,4.5-2.06,7.12,0,7.4,6,13.4,13.4,13.4.03,0,.06,0,.09,0l51.92,93.23c2.6,4.68,9.33,4.67,11.93,0l98.87-177.59c1.02.25,2.07.39,3.17.39,7.4,0,13.4-6,13.4-13.4,0-3.74-1.54-7.12-4.01-9.55l30.29-54.41c2.06-3.7,6.72-5.02,10.42-2.97h0c3.7,2.06,5.02,6.72,2.97,10.42l-156.36,280.85c-2.06,3.7-7.37,3.7-9.43,0L13.22,195.02c-2.06-3.7-.73-8.36,2.97-10.42Z"/>
      <path class="cls-2" d="m44.01,180.74c3.7-2.05,8.36-.71,10.41,2.99l117.25,211.67c1.63,2.94,5.86,2.95,7.5,0l117.22-211.04c2.05-3.7,6.72-5.03,10.41-2.98,3.7,2.05,5.03,6.72,2.98,10.41l-26.07,46.94c-.35-.03-.7-.05-1.06-.05-7.4,0-13.4,6-13.4,13.4,0,2.98.99,5.73,2.63,7.95l-91.11,164.04c-2.34,4.21-8.38,4.2-10.72,0l-43.66-78.81c2.27-2.4,3.68-5.64,3.68-9.21,0-7.4-6-13.4-13.4-13.4-.91,0-1.8.09-2.65.26L41.02,191.15c-2.05-3.7-.71-8.36,2.99-10.41Z"/>
      <image width="1200" height="1200" transform="translate(28.03) rotate(1) scale(.25)" xlink:href="../../../../../../../../Downloads/—Pngtree—abstract motion colorful purple blue_6569206.png"/>
      <g>
        <circle class="cls-3" cx="25.4" cy="149.8" r="24.4"/>
        <path class="cls-1" d="m27.57,165.88c1.82.07,3.56.1,5.22-.06.86-.08,1.21,1.1.44,1.48-2.98,1.46-6.46,2.15-10.16,1.74-7.97-.88-14.56-6.99-15.9-14.31-.63-3.46-1.07-4.85-.83-6.07,1.57-8.08,3.21,1.81,6.73,7.18.05.07,5.23,9.66,14.51,10.03Z"/>
      </g>
      <g>
        <circle class="cls-3" cx="322.46" cy="150.22" r="24.4"/>
        <path class="cls-4" d="m336.86,155.4c-.42,3.73-.96,7.16-2.48,10.11,3.67-3.47,6.19-8.63,6.47-14.61.42-8.96-4.7-16.94-12.16-18.93-1-.27-2.52-.43-3.81-.31-3.12.3-4.16,3.76-.89,5.87.08.05,14.01,7.55,12.86,17.87Z"/>
      </g>
    </g>
  </g>
</svg>